<svg width="142" height="103" viewBox="0 0 142 103" fill="none" xmlns="http://www.w3.org/2000/svg">
<path d="M138.503 26.3233H106.002V6.06413C107.382 6.06413 108.501 4.93068 108.501 3.53206C108.501 2.13344 107.382 1 106.002 1H36.0008C34.6201 1 33.5011 2.13344 33.5011 3.53206C33.5011 4.93068 34.6201 6.06413 36.0008 6.06413V26.3233H3.4997C2.11896 26.3233 1 27.4567 1 28.8553C1 30.2539 2.11896 31.3886 3.4997 31.3886V99.7609C3.4997 100.433 3.76394 101.077 4.23163 101.552C4.70057 102.027 5.33696 102.293 5.9994 102.293H136.001C136.663 102.293 137.299 102.027 137.768 101.552C138.237 101.077 138.5 100.433 138.5 99.7609V31.3886C139.881 31.3886 141 30.2539 141 28.8553C141 27.4567 139.881 26.3233 138.5 26.3233H138.503ZM123.503 41.5168V46.5808L116.003 46.5821V41.518L123.503 41.5168ZM111.004 46.5808L106.003 46.5821V41.518H111.003L111.004 46.5808ZM123.503 61.7743V66.8383L116.003 66.8409V61.7768L123.503 61.7743ZM111.004 66.8383L106.003 66.8409V61.7768H111.003L111.004 66.8383ZM123.503 82.0318V87.0959L116.003 87.0997V82.0343L123.503 82.0318ZM111.004 87.0959L106.003 87.0997V82.0343H111.003L111.004 87.0959ZM18.5025 87.0997V82.0343H26.0028V87.0984L18.5025 87.0997ZM31.0021 82.0356H36.0014V87.0997H31.0021V82.0356ZM18.5025 66.8421V61.7768H26.0028V66.8408L18.5025 66.8421ZM31.0021 61.778H36.0014V66.8421L31.0021 66.8409V61.778ZM18.5025 46.5846V41.5179H26.0028V46.582L18.5025 46.5846ZM31.0021 41.5205H36.0014V46.5846L31.0021 46.5821V41.5205ZM8.50222 31.3885H36.0014V36.4526H16.0012C14.6205 36.4526 13.5015 37.586 13.5015 38.9847V49.1141C13.5015 49.7863 13.7645 50.4297 14.2334 50.9047C14.7024 51.3797 15.3388 51.6474 16.0012 51.6474H36.0014V56.7114H16.0012C14.6205 56.7114 13.5015 57.8449 13.5015 59.2435V69.3729C13.5015 70.0452 13.7645 70.6886 14.2334 71.1636C14.7024 71.6386 15.3388 71.9062 16.0012 71.9062H36.0014V76.9703H16.0012C14.6205 76.9703 13.5015 78.1038 13.5015 79.5024V89.6318C13.5015 90.3041 13.7645 90.9474 14.2334 91.4225C14.7024 91.8975 15.3388 92.1639 16.0012 92.1639H36.0014V97.2279L8.50222 97.2292V31.3885ZM41.0033 6.06403H101.004V97.2281H93.5046V66.8395C94.8853 66.8395 96.0043 65.7061 96.0043 64.3075C96.0043 62.9089 94.8853 61.7754 93.5046 61.7754H48.5036C47.1228 61.7754 46.0039 62.9089 46.0039 64.3075C46.0039 65.7061 47.1228 66.8395 48.5036 66.8395V97.2281H41.0046L41.0033 6.06403ZM53.5029 66.8412H68.5022V79.5026H66.0025C64.6218 79.5026 63.5028 80.636 63.5028 82.0347C63.5028 83.4333 64.6218 84.568 66.0025 84.568H68.5022V97.2294H53.5029V66.8412ZM73.5031 97.2297V84.5683H76.0028C77.3836 84.5683 78.5025 83.4336 78.5025 82.0349C78.5025 80.6363 77.3836 79.5029 76.0028 79.5029H73.5031V66.8414H88.5024V97.23L73.5031 97.2297ZM133.503 97.2297H106.003V92.1644H126.003C126.666 92.1644 127.302 91.898 127.771 91.423C128.24 90.948 128.503 90.3046 128.503 89.6323V79.5029C128.503 78.8319 128.24 78.1872 127.771 77.7122C127.302 77.2372 126.666 76.9708 126.003 76.9708H106.003V71.9068H126.003C126.666 71.9068 127.302 71.6391 127.771 71.1641C128.24 70.6891 128.503 70.0457 128.503 69.3734V59.244C128.503 58.573 128.24 57.9284 127.771 57.4534C127.302 56.9784 126.666 56.712 126.003 56.712H106.003V51.6479H126.003C126.666 51.6479 127.302 51.3802 127.771 50.9052C128.24 50.4302 128.503 49.7869 128.503 49.1146V38.9852C128.503 38.3142 128.24 37.6695 127.771 37.1945C127.302 36.7207 126.666 36.4531 126.003 36.4531H106.003V31.389H133.503V97.2297Z" fill="black" stroke="black" stroke-width="0.390625"/>
<path d="M56.0051 41.5167H63.5054V49.1141V49.1129C63.5054 49.7851 63.7684 50.4285 64.2373 50.9035C64.7063 51.3785 65.3427 51.6462 66.0051 51.6462H76.0051C76.6687 51.6462 77.3039 51.3785 77.7728 50.9035C78.2418 50.4285 78.5048 49.7851 78.5048 49.1129V41.5168H86.005C86.6687 41.5168 87.3039 41.2491 87.7728 40.7741C88.2417 40.2991 88.5047 39.6557 88.5047 38.9835V28.854C88.5047 28.183 88.2417 27.5384 87.7728 27.0634C87.3039 26.5896 86.6687 26.322 86.005 26.322H78.5048V18.7259C78.5048 18.0536 78.2418 17.4089 77.7728 16.9352C77.3039 16.4602 76.6687 16.1926 76.0051 16.1926H66.0051C64.6244 16.1926 63.5054 17.3273 63.5054 18.7259V26.3233L56.0051 26.322C54.6244 26.322 53.5054 27.4555 53.5054 28.8541V38.9835C53.5054 39.6558 53.7684 40.2991 54.2374 40.7741C54.7063 41.2492 55.3427 41.5167 56.0051 41.5167ZM58.5048 31.3873H66.0051C66.6688 31.3873 67.3039 31.1197 67.7729 30.6447C68.2418 30.1709 68.5048 29.5263 68.5048 28.854V21.2579H73.5041V28.8553L73.5054 28.854C73.5054 29.5263 73.7684 30.171 74.2373 30.6447C74.7063 31.1197 75.3427 31.3874 76.0051 31.3874H83.5054V36.4514H76.0051C74.6244 36.4514 73.5054 37.5849 73.5054 38.9835V46.5809H68.5048V38.9835C68.5048 38.3125 68.2418 37.6678 67.7729 37.1928C67.3039 36.7191 66.6688 36.4514 66.0051 36.4514H58.5048L58.5048 31.3873Z" fill="black" stroke="black" stroke-width="0.390625"/>
</svg>
