<svg width="103" height="103" viewBox="0 0 103 103" fill="none" xmlns="http://www.w3.org/2000/svg">
<path d="M51.5 1C38.1063 1 25.2608 6.31994 15.7912 15.7912C6.31994 25.2614 1 38.1069 1 51.5C1 64.8926 6.31994 77.738 15.7912 87.2087C25.2614 96.68 38.1069 102 51.5 102C64.8926 102 77.738 96.68 87.2087 87.2087C96.68 77.7386 102 64.8931 102 51.5C102 38.1063 96.68 25.2608 87.2087 15.7912C77.7386 6.31994 64.8931 1 51.5 1ZM51.5 96.0583C39.6816 96.0583 28.3475 91.3641 19.9913 83.0073C11.6345 74.6517 6.94033 63.3175 6.94033 51.5014C6.94033 39.683 11.6345 28.3489 19.9913 19.9927C28.3469 11.6359 39.681 6.94174 51.5 6.94174C63.3173 6.94174 74.6514 11.6359 83.0059 19.9927C91.3627 28.3483 96.0568 39.6825 96.0568 51.5014C96.0568 63.3187 91.3627 74.6528 83.0059 83.0073C74.6503 91.3641 63.3161 96.0583 51.5 96.0583ZM57.4412 78.2344H51.5C49.8594 78.2344 48.5294 76.9045 48.5294 75.2639V51.5H45.5588C43.9182 51.5 42.5882 50.17 42.5882 48.5294C42.5882 46.8888 43.9182 45.5588 45.5588 45.5588H51.5C52.2871 45.5588 53.0433 45.8717 53.6006 46.4289C54.1578 46.9861 54.4706 47.7412 54.4706 48.5294V72.2944H57.4412C59.0818 72.2944 60.4118 73.6244 60.4118 75.2639C60.4118 76.9045 59.0818 78.2344 57.4412 78.2344ZM57.4412 33.6767C57.4412 35.2521 56.8143 36.7634 55.701 37.8779C54.5867 38.9912 53.0754 39.618 51.4999 39.618C49.9234 39.618 48.4121 38.9912 47.2987 37.8779C46.1843 36.7635 45.5586 35.2522 45.5586 33.6767C45.5586 32.1002 46.1843 30.5901 47.2987 29.4756C48.412 28.3612 49.9233 27.7354 51.4999 27.7354C53.0753 27.7354 54.5865 28.3612 55.701 29.4756C56.8143 30.59 57.4412 32.1001 57.4412 33.6767Z" fill="black"/>
<path d="M57.4412 33.6756V33.6767M57.4412 33.6767C57.4412 35.2521 56.8143 36.7634 55.701 37.8779C54.5867 38.9912 53.0754 39.618 51.4999 39.618C49.9234 39.618 48.4121 38.9912 47.2987 37.8779C46.1843 36.7635 45.5586 35.2522 45.5586 33.6767C45.5586 32.1002 46.1843 30.5901 47.2987 29.4756C48.412 28.3612 49.9233 27.7354 51.4999 27.7354C53.0753 27.7354 54.5865 28.3612 55.701 29.4756C56.8143 30.59 57.4412 32.1001 57.4412 33.6767ZM51.5 1C38.1063 1 25.2608 6.31994 15.7912 15.7912C6.31994 25.2614 1 38.1069 1 51.5C1 64.8926 6.31994 77.738 15.7912 87.2088C25.2614 96.68 38.1069 102 51.5 102C64.8926 102 77.738 96.68 87.2088 87.2088C96.68 77.7386 102 64.8931 102 51.5C102 38.1063 96.68 25.2608 87.2088 15.7912C77.7386 6.31994 64.8931 1 51.5 1ZM51.5 96.0583C39.6816 96.0583 28.3475 91.3641 19.9913 83.0073C11.6345 74.6517 6.94033 63.3175 6.94033 51.5014C6.94033 39.683 11.6345 28.3489 19.9913 19.9927C28.3469 11.6359 39.681 6.94174 51.5 6.94174C63.3173 6.94174 74.6514 11.6359 83.0059 19.9927C91.3627 28.3483 96.0568 39.6825 96.0568 51.5014C96.0568 63.3187 91.3627 74.6528 83.0059 83.0073C74.6503 91.3641 63.3161 96.0583 51.5 96.0583ZM57.4412 78.2344H51.5C49.8594 78.2344 48.5294 76.9045 48.5294 75.2639V51.5H45.5588C43.9182 51.5 42.5882 50.17 42.5882 48.5294C42.5882 46.8888 43.9182 45.5588 45.5588 45.5588H51.5C52.2871 45.5588 53.0433 45.8717 53.6006 46.4289C54.1578 46.9861 54.4706 47.7412 54.4706 48.5294V72.2944H57.4412C59.0818 72.2944 60.4118 73.6244 60.4118 75.2639C60.4118 76.9045 59.0818 78.2344 57.4412 78.2344Z" stroke="black" stroke-width="0.390625"/>
</svg>
