<svg width="110" height="103" viewBox="0 0 110 103" fill="none" xmlns="http://www.w3.org/2000/svg">
<path d="M29.3534 1.02146C28.2294 1.12962 27.1759 1.61047 26.3583 2.38716L2.81303 24.2367C1.75162 25.1215 1.10096 26.4025 1.011 27.7799C0.919723 29.1573 1.39959 30.5125 2.33582 31.5275C3.27205 32.5414 4.58382 33.1291 5.966 33.1512C7.34686 33.1721 8.6769 32.6274 9.64558 31.6422L33.1908 9.7927H33.1895C34.2483 8.8427 34.8559 7.48878 34.8625 6.06704C34.869 4.64534 34.2744 3.28618 33.226 2.32438C32.1764 1.36397 30.7707 0.890926 29.3532 1.02126L29.3534 1.02146ZM79.9622 1.02146C78.6257 1.08532 77.3674 1.67692 76.4663 2.66732C75.5666 3.65771 75.0958 4.96473 75.1597 6.30057C75.2249 7.63757 75.8182 8.89378 76.8092 9.79303L100.354 31.6426C101.322 32.6277 102.652 33.1724 104.033 33.1516C105.415 33.1294 106.727 32.5417 107.663 31.5279C108.599 30.5127 109.079 29.1575 108.989 27.7802C108.899 26.4028 108.247 25.1218 107.186 24.237L83.6407 2.38749H83.642C82.6497 1.45575 81.3236 0.963185 79.9625 1.0218L79.9622 1.02146ZM54.9997 11.1586C29.9823 11.1586 9.5916 31.5356 9.5916 56.5383C9.5916 81.54 29.9813 101.918 54.9997 101.918C80.0183 101.918 100.408 81.541 100.408 56.5383C100.408 31.5366 80.018 11.1586 54.9997 11.1586ZM54.9997 21.2433C74.5639 21.2433 90.3167 36.9863 90.3167 56.5383C90.3167 76.0903 74.5649 91.8333 54.9997 91.8333C35.4354 91.8333 19.6827 76.0903 19.6827 56.5383C19.6827 36.9863 35.4344 21.2433 54.9997 21.2433ZM54.9997 27.9661C52.2131 27.9661 49.9548 30.2231 49.9548 33.0078V56.5383C49.9548 57.9301 50.5129 59.198 51.427 60.1102L65.722 74.3442C67.6923 76.3133 70.8467 76.3133 72.8168 74.3442C74.787 72.3752 74.787 69.2228 72.8168 67.2539L60.0446 54.4363V33.0078C60.0446 30.223 57.7861 27.9661 54.9997 27.9661Z" fill="black" stroke="black" stroke-width="0.390625"/>
</svg>
